<?xml version="1.0" encoding="utf-8"?>
<!-- Generator: Adobe Illustrator 24.1.0, SVG Export Plug-In . SVG Version: 6.00 Build 0)  -->
<svg version="1.1" id="Capa_1" xmlns="http://www.w3.org/2000/svg" xmlns:xlink="http://www.w3.org/1999/xlink" x="0px" y="0px"
	 viewBox="0 0 512 378.4" style="enable-background:new 0 0 512 378.4;" xml:space="preserve">
<g>
	<g>
		<g>
			<path d="M231.7,370.4c81.3,0,147.4-66,147.4-147.3S313,75.8,231.7,75.8h-16.5L257.8,33c5.7-5.8,5.7-15.1,0-20.8
				c-5.8-5.7-15.1-5.7-20.8,0l-67.2,67.5c-2.9,2.9-4.3,6.8-4.3,10.6c0,0.1,0,0.1,0,0.2c0,5.1,2.5,9.6,6.6,12.2l64.9,65.2
				c5.7,5.8,15,5.8,20.8,0c5.8-5.7,5.8-15,0-20.8l-41.8-42h15.7c65,0,118,53,118,118s-53,118-118,118"/>
		</g>
	</g>
	<g>
		<g>
			<path d="M321.9,299.1c-41.8,49.8-115.4,56.3-165.3,14.5l0.4,0.3c-6.2-5.2-15.5-4.4-20.7,1.8c-5.2,6.2-4.4,15.5,1.8,20.7l-0.4-0.3
				c62.3,52.3,154.8,43.7,207-18.6"/>
		</g>
	</g>
</g>
</svg>
