<?xml version="1.0" encoding="utf-8"?>
<!-- Generator: Adobe Illustrator 24.1.0, SVG Export Plug-In . SVG Version: 6.00 Build 0)  -->
<svg version="1.1" id="Layer_1" xmlns="http://www.w3.org/2000/svg" xmlns:xlink="http://www.w3.org/1999/xlink" x="0px" y="0px"
	 viewBox="0 0 512 512" style="enable-background:new 0 0 512 512;" xml:space="preserve">
<path d="M456.1,344.5c0,39.3-31.9,71.2-71.2,71.2H123.5c-0.6,0-0.9,0.7-0.5,1.1l40.8,40.8l0,0c8.8,8.8,8.3,23.4-1.4,31.5
	c-8.5,7.2-21.2,6.2-29.1-1.7l-78-78c0,0,0,0,0,0c-8.3-8.3-8.3-21.9,0-30.2l78-78c7.9-7.9,20.6-8.8,29.1-1.7
	c9.8,8.2,10.2,22.7,1.4,31.5l-40.8,40.8c-0.4,0.4-0.1,1.1,0.5,1.1h261.4c15.7,0,28.5-12.8,28.5-28.5V102.4v9.2
	c0-15.7-12.8-28.5-28.5-28.5H273.8c-11.5,0-20.9-9.3-20.9-20.9v0c0-12.1,9.8-21.9,21.9-21.9h110.1c39.3,0,71.2,31.9,71.2,71.2"/>
</svg>
