<svg id="Capa_1" enable-background="new 0 0 512 512" height="512" viewBox="0 0 512 512" width="512" xmlns="http://www.w3.org/2000/svg"><path d="m512 308.343c0-11.815-6.868-22.054-16.82-26.942 7.781-25.783 2.615-48.94-14.62-63.326-2.992-2.498-6.22-4.602-9.604-6.329 3.035-17.094-2.238-32.129-14.886-41.306-9.079-6.587-20.562-8.917-30.851-6.907-4.549-14.759-15.061-25.838-29.682-30.695-19.545-6.492-42.222-.399-55.151 14.816-13.419 15.792-14.633 38.424-3.589 62.756-3.799 5.915-6.711 12.494-8.544 19.544-4.724 18.174-1.926 36.916 7.614 53.116-8.329 5.335-13.867 14.666-13.867 25.273 0 8.534 3.588 16.24 9.327 21.708-5.498 2.248-10.92 2.833-16.36 1.762-13.226-2.604-34.255-16.504-59.326-67.938-18.826-38.622-37.809-76.279-62.969-112.377-3.159-4.53-9.391-5.643-13.922-2.486-4.531 3.158-5.644 9.391-2.485 13.922 24.04 34.49 42.473 70.913 60.716 108.308-8.391 5.605-23.407 15.523-34.786 22.421-14.028-41.74-29.792-83.663-53.494-121.319-31.777-50.485-73.927-86.341-128.701-109.439v-12.381c36.016 6.779 68.241 22.357 98.2 47.417 4.237 3.543 10.543 2.982 14.086-1.254s2.982-10.543-1.254-14.086c-35.55-29.737-75.822-47.813-119.697-53.726-2.857-.384-5.745.483-7.917 2.382-2.172 1.9-3.418 4.644-3.418 7.529v30.831c0 4.099 2.501 7.782 6.31 9.294 120.262 47.745 153.635 149.709 185.909 248.317 6.589 20.131 13.402 40.947 20.816 60.796 12.769 34.181 33.578 60.819 60.178 77.033 19.681 11.996 41.996 18.158 65.355 18.157 5.756 0 11.579-.375 17.437-1.128 33.67-4.33 65.9-20.971 90.751-46.856 25.442-26.5 41.535-60.682 46.792-99.203 10.827-4.532 18.452-15.233 18.452-27.684zm-30 10h-130c-5.514 0-10-4.486-10-10s4.486-10 10-10h130c5.514 0 10 4.486 10 10s-4.485 10-10 10zm-126.372-157.739c7.661-9.015 21.795-12.709 33.605-8.787 6.392 2.124 17.282 8.357 18.409 26.25.23 3.659 2.445 6.899 5.771 8.442 3.325 1.543 7.229 1.144 10.173-1.043 5.302-3.939 14.412-3.429 20.739 1.161 5.843 4.24 8.306 11.046 7.261 19.583-11.435-.986-23.158 1.74-33.094 8.31-4.607 3.046-5.872 9.25-2.826 13.857s9.251 5.872 13.857 2.826c11.495-7.602 27.569-6.665 38.221 2.226 11.46 9.566 14.054 25.729 7.423 44.914h-118.413c-9.687-12.811-13.03-28.402-9.142-43.358 3.862-14.858 14.439-26.715 28.292-31.717 5.194-1.876 7.885-7.607 6.009-12.802-1.877-5.195-7.609-7.885-12.802-6.009-6.283 2.269-12.096 5.496-17.287 9.51-4.367-13.614-3.131-25.201 3.804-33.363zm-2.174 301.646c-54.572 7.014-100.063-23.346-121.684-81.225-7.271-19.463-14.018-40.08-20.544-60.018-.86-2.629-1.723-5.264-2.588-7.901 11.505-6.761 27.806-17.468 37.594-23.989 20.543 36.939 42.321 57.88 64.872 62.32 3.102.611 6.19.916 9.266.916 12.055 0 23.882-4.699 35.298-14.009h117.32c-12.492 76.078-69.59 117.482-119.534 123.906z"/><path d="m458.909 136.086c19.023 0 34.5-15.477 34.5-34.5s-15.477-34.5-34.5-34.5-34.5 15.477-34.5 34.5 15.477 34.5 34.5 34.5zm0-49c7.995 0 14.5 6.505 14.5 14.5s-6.505 14.5-14.5 14.5-14.5-6.504-14.5-14.5 6.505-14.5 14.5-14.5z"/><path d="m156.768 131.753c5.523 0 10-4.477 10-10s-4.477-10-10-10h-.007c-5.523 0-9.996 4.477-9.996 10s4.48 10 10.003 10z"/></svg>