<?xml version="1.0" encoding="utf-8"?>
<!-- Generator: Adobe Illustrator 24.1.0, SVG Export Plug-In . SVG Version: 6.00 Build 0)  -->
<svg version="1.1" id="Layer_1" xmlns="http://www.w3.org/2000/svg" xmlns:xlink="http://www.w3.org/1999/xlink" x="0px" y="0px"
	 viewBox="0 0 145 90" style="enable-background:new 0 0 145 90;" xml:space="preserve">
<style type="text/css">
	.st0{fill:none;stroke:#000000;stroke-width:2.2536;stroke-miterlimit:10;}
</style>
<g>
	<g>
		<path class="st0" d="M142.3,43c1.4,1,1.7,2.9,0.7,4.3S140,49,138.7,48c-1.4-1-1.7-2.9-0.7-4.3C138.9,42.3,140.9,42,142.3,43z"/>
		<path class="st0" d="M108.1,33.2c2.4,1.7,3,5.1,1.2,7.6c-1.7,2.4-5.1,3-7.6,1.2c-2.4-1.7-3-5.1-1.2-7.6S105.7,31.5,108.1,33.2z"/>
		<path class="st0" d="M2.3,27.6c2.5-11,13.7-17.7,25-15.1c0.4,0.1,1,0.2,1.4,0.3c4-8,13-12.2,22-10.2C57,4.1,62.1,8.2,64.4,13.9
			c4.7-2.6,10.1-3.3,15.4-2.1c11.4,2.6,18.7,13.9,16.2,25c-0.3,1.3-0.8,2.6-1.3,3.8c6.2,4.8,9,12.6,7.2,20.2
			C99.8,70.1,91.5,76.3,82,76.3c0,0,0,0,0,0.1c-1.7,7.2-9.1,11.7-16.5,10c-3.2-0.7-6.1-2.6-8-5.1c-5.1,4.3-11.9,6-18.6,4.4
			c-8.2-1.9-14.6-8.6-16.1-16.7c-1.9,0.3-3.7,0.3-5.6-0.1c-7.4-1.7-12.1-9-10.4-16.2c0.4-1.7,1.1-3.3,2.1-4.7
			C3.3,42.9,0.6,35,2.3,27.6z"/>
		<path class="st0" d="M121.7,32.7c2,1.5,2.4,4.3,1,6.3c-1.5,2-4.3,2.4-6.3,1c-2-1.5-2.4-4.3-1-6.3
			C116.9,31.5,119.7,31.2,121.7,32.7z"/>
		<path class="st0" d="M133.2,36.3c1.6,1.2,2,3.6,0.8,5.2c-1.2,1.6-3.6,2-5.2,0.8c-1.6-1.2-2-3.6-0.8-5.2
			C129.3,35.4,131.6,35.1,133.2,36.3z"/>
	</g>
</g>
</svg>
