<svg 
	id="Capa_1"  
	viewBox="0 0 514 514" 
	xmlns="http://www.w3.org/2000/svg">
	<path d="m383.982 303.963c0-61.024-35.008-96-96-96-16.096 0-31.2 3.488-44.672 9.248-2.72-12.736-5.344-24.96-7.808-36.448 2.272-2.304 4.48-4.544 6.656-6.72 84.512-84.544 27.392-166.56 26.784-167.392-4.352-6.08-12.384-8.32-19.328-5.344-26.4 11.36-72.768 51.552-58.72 122.112 2.4 12.032 5.76 28.32 9.792 47.392-36.992 39.456-72.704 86.944-72.704 133.152 0 51.52 54.4 93.696 122.4 95.904 3.296 14.88 6.368 28.832 9.152 41.472 1.632 7.456-.128 14.816-3.648 21.408-.704-25.888-21.856-46.784-47.904-46.784-26.464 0-48 21.536-48 48s21.536 48 48 48h20.224c19.584 0 37.824-8.704 50.016-23.936 12.128-15.104 16.704-34.624 12.512-53.568-2.464-11.264-5.184-23.552-8.064-36.608 57.824-9.216 101.312-47.84 101.312-93.888zm-134.176-265.536c8.16 20 16.192 60.256-22.272 104.448-2.048-9.856-3.84-18.528-5.248-25.696-8.576-43.072 12.8-67.456 27.52-78.752zm-89.824 265.536c0-29.984 23.04-64.416 48.928-94.464 1.76 8.224 3.616 16.704 5.472 25.376-13.728 11.36-23.84 25.024-29.056 38.336-8.672 22.24-4.384 43.552 11.808 58.496 6.464 6.016 16.608 5.664 22.592-.896 6.016-6.496 5.6-16.608-.896-22.592-2.336-2.144-9.408-8.672-3.68-23.36 1.664-4.224 4.128-8.512 7.328-12.672 6.88 31.712 14.048 64.544 20.768 95.2-46.272-4.32-83.264-31.616-83.264-63.424zm115.84 62.56c-8.224-37.472-17.184-78.528-25.536-117.12 11.2-5.76 24.128-9.44 37.696-9.44 43.072 0 64 20.928 64 64 0 30.176-33.248 56.288-76.16 62.56z"/>
</svg>